<?xml version="1.0" standalone="no"?>
<!DOCTYPE svg PUBLIC "-//W3C//DTD SVG 20010904//EN"
 "http://www.w3.org/TR/2001/REC-SVG-20010904/DTD/svg10.dtd">
<svg version="1.0" xmlns="http://www.w3.org/2000/svg"
 width="512.000000pt" height="512.000000pt" viewBox="0 0 512.000000 512.000000"
 preserveAspectRatio="xMidYMid meet">

<g transform="translate(0.000000,512.000000) scale(0.100000,-0.100000)"
fill="#0c2a7a" stroke="none">
<path d="M600 5105 c-298 -55 -533 -292 -585 -593 -22 -127 -22 -3777 0 -3904
53 -305 288 -540 593 -593 127 -22 3777 -22 3904 0 305 53 540 288 593 593 22
127 22 3777 0 3904 -53 305 -288 540 -593 593 -121 21 -3796 21 -3912 0z m552
-1857 l3 -483 533 -3 532 -2 0 485 0 485 175 0 175 0 0 -1170 0 -1170 -175 0
-175 0 0 520 0 520 -535 0 -535 0 0 -520 0 -520 -175 0 -175 0 0 1170 0 1170
175 0 175 0 2 -482z m2128 -225 c150 -398 610 -1643 610 -1649 0 -5 -56 -153
-123 -329 l-123 -320 -177 -3 c-102 -1 -177 1 -177 7 0 5 58 158 129 341 l130
333 -295 776 c-163 427 -307 804 -320 839 l-23 62 174 0 174 0 21 -57z m1260
50 c0 -15 -475 -1253 -481 -1253 -3 0 -10 15 -16 33 -6 17 -43 120 -83 227
l-72 196 153 402 153 402 173 0 c95 0 173 -3 173 -7z"/>
</g>
</svg>
